<svg viewBox="0 0 120 120" xmlns="http://www.w3.org/2000/svg" xmlns:xlink="http://www.w3.org/1999/xlink" width="120.000000" height="120.000000" fill="none" customFrame="#000000">
	<defs>
		<clipPath id="clipPath_0">
			<rect width="120.000000" height="120.000000" x="0.000000" y="0.000000" fill="rgb(255,255,255)" />
		</clipPath>
	</defs>
	<rect id="empty" width="120.000000" height="120.000000" x="0.000000" y="0.000000" fill="rgb(255,255,255)" fill-opacity="0" />
	<rect id="矩形" width="120.000000" height="120.000000" x="0.000000" y="0.000000" opacity="0" />
	<g id="EmptyPage/08 NoInstallationPackage" customFrame="url(#clipPath_0)">
		<rect id="EmptyPage/08 NoInstallationPackage" width="120.000000" height="120.000000" x="0.000000" y="0.000000" />
		<path id="路径" d="M18.5779 97.0928L18.579 99.0504C18.579 100.248 19.5093 101.228 20.6863 101.307L20.8412 101.312L99.4461 101.312C100.643 101.312 101.623 100.382 101.703 99.2053L101.708 99.0504L101.709 97.3548C103.836 98.2134 105.007 99.1522 105.007 100.136C105.007 101.321 103.305 102.442 100.279 103.435L99.6344 103.639L99.6344 103.639L98.9525 103.839L98.9525 103.839L98.2344 104.035L98.2344 104.035L97.4807 104.227L97.4807 104.227L96.6922 104.415C96.5579 104.446 96.4222 104.477 96.2851 104.507L95.4458 104.689L95.4458 104.689L94.5735 104.866L94.5735 104.866L93.6691 105.039L93.6691 105.039L92.7332 105.207C92.4161 105.262 92.0938 105.316 91.7666 105.37L90.7701 105.528L90.7701 105.528L89.7443 105.682L89.7443 105.682L88.69 105.83L88.69 105.83L87.6081 105.972L87.6081 105.972L86.4991 106.11L86.4991 106.11L85.3639 106.242L85.3639 106.242L84.2032 106.368L84.2032 106.368L83.0178 106.489L83.0178 106.489L81.8084 106.603L81.8084 106.603L80.5757 106.712L80.5757 106.712L79.3205 106.814L79.3205 106.814L78.0435 106.911L78.0435 106.911L76.7455 107.001L76.7455 107.001L75.4272 107.084L75.4272 107.084L74.0894 107.161L74.0894 107.161L72.7328 107.231L72.7328 107.231L71.3581 107.294L71.3581 107.294L69.9662 107.35L69.9662 107.35L68.5576 107.399L68.5576 107.399L67.1333 107.441L67.1333 107.441L64.9688 107.49L64.9688 107.49L63.5082 107.514L63.5082 107.514L62.0344 107.529L62.0344 107.529L60.5481 107.537L60.5481 107.537L59.0529 107.537L59.0529 107.537L57.5667 107.529L57.5667 107.529L56.0928 107.514L56.0928 107.514L54.6322 107.49L54.6322 107.49L53.1856 107.459L53.1856 107.459L51.7536 107.421L51.7536 107.421L50.3371 107.376L50.3371 107.376L48.9368 107.323L48.9368 107.323L47.5534 107.263L47.5534 107.263L46.1876 107.197L46.1876 107.197L44.8403 107.123L44.8403 107.123L43.5122 107.043L43.5122 107.043L42.2039 106.956L42.2039 106.956L40.9164 106.863L40.9164 106.863L39.6502 106.764L39.6502 106.764L38.4061 106.658L38.4061 106.658L37.185 106.547L37.185 106.547L35.9874 106.429L35.9874 106.429L34.8143 106.306L34.8143 106.306L33.6663 106.177C33.4771 106.155 33.2889 106.132 33.1019 106.11L31.993 105.972L31.993 105.972L30.911 105.83L30.911 105.83L29.8567 105.682L29.8567 105.682L28.831 105.528L28.831 105.528L27.8344 105.37C27.6708 105.343 27.5084 105.316 27.3473 105.289L26.396 105.123C26.24 105.095 26.0853 105.067 25.9319 105.039L25.0275 104.866L25.0275 104.866L24.1552 104.689L24.1552 104.689L23.3159 104.507C23.1788 104.477 23.0431 104.446 22.9089 104.415L22.1203 104.227L22.1203 104.227L21.3666 104.035L21.3666 104.035L20.6485 103.839L20.6485 103.839L19.9666 103.639L19.9666 103.639L19.3218 103.435C16.2958 102.442 14.5936 101.321 14.5936 100.136C14.5936 99.1315 15.815 98.1739 18.0279 97.3007L18.5779 97.0928L18.5779 97.0928Z" opacity="0.150000006" fill="rgb(161,167,179)" fill-rule="evenodd" />
		<path id="路径" d="M20.6863 101.307C19.5093 101.228 18.579 100.248 18.579 99.0504L18.5785 98.1616L18.5779 97.0928L18.0279 97.3007C17.8731 97.3618 17.7232 97.4233 17.5781 97.4852C15.6501 98.3081 14.5936 99.2018 14.5936 100.136C14.5936 101.321 16.2958 102.442 19.3218 103.435L19.9666 103.639L20.6485 103.839L21.3666 104.035L22.1203 104.227L22.9089 104.415C23.0431 104.446 23.1788 104.477 23.3159 104.507L24.1552 104.689L25.0275 104.866L25.9319 105.039C26.0853 105.067 26.24 105.095 26.396 105.123L27.3473 105.289C27.5084 105.316 27.6708 105.343 27.8344 105.37L28.831 105.528L29.8567 105.682L30.911 105.83L31.993 105.972L33.1019 106.11C33.2889 106.132 33.4771 106.155 33.6663 106.177L34.8143 106.306L35.9874 106.429L37.185 106.547L38.4061 106.658L39.6502 106.764L40.9164 106.863L42.2039 106.956L43.5122 107.043L44.8403 107.123L46.1876 107.197L47.5534 107.263L48.9368 107.323L50.3371 107.376L51.7536 107.421L53.1856 107.459L54.6322 107.49L56.0928 107.514L57.5667 107.529L59.0529 107.537L60.5481 107.537L62.0344 107.529L63.5082 107.514L64.9688 107.49L67.1333 107.441L68.5576 107.399L69.9662 107.35L71.3581 107.294L72.7328 107.231L74.0894 107.161L75.4272 107.084L76.7455 107.001L78.0435 106.911L79.3205 106.814L80.5757 106.712L81.8084 106.603L83.0178 106.489L84.2032 106.368L85.3639 106.242L86.4991 106.11L87.6081 105.972L88.69 105.83L89.7443 105.682L90.7701 105.528L91.7666 105.37C92.0938 105.316 92.4161 105.262 92.7332 105.207L93.6691 105.039L94.5735 104.866L95.4458 104.689L96.2851 104.507C96.4222 104.477 96.5579 104.446 96.6922 104.415L97.4807 104.227L98.2344 104.035L98.9525 103.839L99.6344 103.639L100.279 103.435C103.305 102.442 105.007 101.321 105.007 100.136C105.007 99.3192 104.2 98.5335 102.709 97.7989C102.403 97.6487 102.07 97.5006 101.709 97.3548L101.708 98.4383L101.708 99.0504L101.703 99.2053C101.623 100.382 100.643 101.312 99.4461 101.312L20.8412 101.312L20.6863 101.307ZM102.708 98.9264L102.708 99.0675L102.702 99.2557L102.701 99.2728C102.672 99.6952 102.574 100.085 102.406 100.442C102.235 100.805 101.993 101.134 101.678 101.429C101.365 101.723 101.022 101.944 100.651 102.091C100.279 102.239 99.877 102.312 99.4461 102.312L20.8243 102.312L20.6357 102.306L20.6188 102.305C20.1964 102.276 19.8068 102.178 19.4498 102.01C19.0867 101.84 18.7575 101.597 18.4621 101.282C18.1681 100.969 17.9475 100.627 17.8003 100.255C17.6528 99.8829 17.5791 99.4815 17.579 99.051L17.579 99.0504L17.5788 98.5787C16.9555 98.8673 16.4668 99.1558 16.1125 99.4444C15.7666 99.7262 15.5936 99.9567 15.5936 100.136C15.5936 100.37 15.8589 100.669 16.3894 101.033C17.1071 101.527 18.185 102.01 19.623 102.482L20.248 102.679L20.9119 102.874L21.6136 103.066L22.3523 103.254L23.1302 103.44L23.5274 103.53L24.3543 103.709L25.215 103.884L26.1112 104.055L26.5675 104.138L27.5113 104.303L27.9913 104.382L28.9787 104.539L29.9958 104.691L31.0418 104.838L32.1159 104.98L33.2192 105.117L33.778 105.183L34.9189 105.311L36.0852 105.434L37.276 105.551L38.4907 105.662L39.7284 105.767L40.9885 105.866L42.27 105.959L43.5724 106.045L44.8948 106.125L46.2364 106.198L47.5965 106.264L48.9744 106.324L50.3692 106.376L51.7803 106.422L53.2069 106.46L54.6482 106.49L56.1035 106.514L57.572 106.529L59.0529 106.537L60.5428 106.537L62.0237 106.529L63.4922 106.514L64.9461 106.49L67.1039 106.442L68.5228 106.4L69.9258 106.351L71.3122 106.295L72.6812 106.232L74.0321 106.162L75.3641 106.086L76.6764 106.003L77.9683 105.913L79.2391 105.818L80.4879 105.716L81.714 105.608L82.9167 105.494L84.0951 105.374L85.2485 105.248L86.3761 105.117L87.4772 104.981L88.5509 104.839L89.5965 104.692L90.6132 104.541L91.6002 104.384L92.5566 104.223L93.4816 104.057L94.3745 103.886L95.2343 103.712L96.0637 103.532L96.4603 103.442L97.2337 103.258L97.971 103.07L98.6711 102.879L99.3332 102.685L99.9673 102.485C101.412 102.011 102.494 101.527 103.212 101.033C103.742 100.669 104.007 100.37 104.007 100.136C104.007 99.9626 103.844 99.7397 103.516 99.4671C103.3 99.2871 103.03 99.1068 102.708 98.9264Z" opacity="0.150000006" fill="rgb(151,151,151)" fill-opacity="0" fill-rule="evenodd" />
		<path id="形状" d="M81.2956 50.0657C81.9106 50.0657 82.4971 50.316 82.922 50.7556L83.0105 50.8526L101.434 72.2719C101.589 72.4515 101.682 72.6743 101.703 72.9085L101.708 73.0373L101.708 99.0505C101.708 100.3 100.695 101.313 99.446 101.313L20.841 101.313C19.5918 101.313 18.5789 100.3 18.5789 99.0505L18.5789 73.0373C18.5753 72.8033 18.6419 72.5668 18.7834 72.3638L18.8486 72.279L36.9624 50.8668C37.3635 50.3926 37.9406 50.1057 38.5568 50.0696L38.6894 50.0657L81.2956 50.0657ZM42.036 50.9546L77.9931 50.9546L78.1864 50.9629C78.7623 51.0122 79.2987 51.2806 79.6838 51.7138L79.7668 51.8128L95.3164 71.4591L95.4025 71.5843C95.5055 71.7581 95.5606 71.9572 95.5606 72.161C95.5606 72.7572 95.0992 73.2457 94.514 73.2889L94.4296 73.292L86.3661 73.292L86.3666 81.1372L86.3604 81.2836C86.2862 82.1521 85.5578 82.8338 84.6701 82.8338L37.7334 82.8338L37.587 82.8275C36.7186 82.7533 36.0368 82.0249 36.0368 81.1372L36.0364 73.292L25.8562 73.292L25.725 73.2844C25.5514 73.2641 25.3847 73.2038 25.238 73.1081L25.1615 73.0535L25.0668 72.971C24.6806 72.5956 24.6128 71.9946 24.9097 71.5418L24.9637 71.4663L40.2511 51.8272L40.3656 51.6914C40.7631 51.256 41.3159 50.9924 41.9057 50.9584L42.036 50.9546Z" opacity="0.400000006" fill="rgb(161,167,179)" fill-rule="evenodd" />
		<path id="形状" d="M81.2956 50.0657C81.9106 50.0657 82.4971 50.316 82.922 50.7556L83.0105 50.8526L101.434 72.2719C101.589 72.4515 101.682 72.6743 101.703 72.9085L101.708 73.0373L101.708 99.0505C101.708 100.3 100.695 101.313 99.446 101.313L20.841 101.313C19.5918 101.313 18.5789 100.3 18.5789 99.0505L18.5789 73.0373C18.5788 73.0313 18.5787 73.0254 18.5787 73.0194C18.5787 72.7912 18.6455 72.5616 18.7834 72.3638L18.8486 72.279L36.9624 50.8668C37.3635 50.3926 37.9406 50.1057 38.5568 50.0696L38.6894 50.0657L81.2956 50.0657ZM77.9931 50.9546L42.036 50.9546L41.9057 50.9584C41.3159 50.9924 40.7631 51.256 40.3656 51.6914L40.2511 51.8272L24.9637 71.4663L24.9097 71.5418C24.7855 71.7311 24.7252 71.9464 24.7252 72.1602C24.7252 72.4578 24.8421 72.7526 25.0668 72.971L25.1615 73.0535L25.238 73.1081C25.3847 73.2038 25.5514 73.2641 25.725 73.2844L25.8562 73.292L36.0364 73.292L36.0368 81.1372C36.0368 82.0249 36.7186 82.7533 37.587 82.8275L37.7334 82.8338L84.6701 82.8338C85.5578 82.8338 86.2862 82.1521 86.3604 81.2836L86.3666 81.1372L86.3661 73.292L94.4296 73.292L94.514 73.2889C95.0992 73.2457 95.5606 72.7572 95.5606 72.161C95.5606 71.9572 95.5055 71.7581 95.4025 71.5843L95.3164 71.4591L79.7668 51.8128L79.6838 51.7138C79.2987 51.2806 78.7623 51.0122 78.1864 50.9629L77.9931 50.9546ZM39.5851 51.0657L38.704 51.0657L38.6026 51.0687Q38.3404 51.0863 38.1235 51.1946L38.1234 51.1947Q37.9007 51.3059 37.7259 51.5126L19.6271 72.9071L19.5978 72.9452C19.5852 72.9679 19.5788 72.9972 19.5788 73.0331L19.5789 73.0373L19.5789 99.0505C19.5789 99.399 19.7021 99.6964 19.9486 99.9428Q20.1334 100.128 20.3566 100.22L20.3568 100.22Q20.5798 100.313 20.841 100.313L99.446 100.313C99.7945 100.313 100.092 100.189 100.338 99.9429C100.585 99.6964 100.708 99.399 100.708 99.0505L100.708 73.0549L100.705 72.9838C100.701 72.9616 100.691 72.9417 100.676 72.924L82.2619 51.5158L82.1941 51.4415C81.9478 51.191 81.6483 51.0657 81.2956 51.0657L80.4453 51.0657L80.5421 51.181L96.1214 70.8648L96.2457 71.0455L96.2628 71.0745C96.4613 71.4094 96.5606 71.7716 96.5606 72.161Q96.5606 72.5813 96.4171 72.945L96.4171 72.9452Q96.2739 73.308 95.988 73.6145C95.6083 74.0214 95.1415 74.2453 94.5876 74.2862L94.5692 74.2875L94.4479 74.292L87.3662 74.292L87.3666 81.1585L87.3586 81.3474L87.3568 81.3688C87.2975 82.0625 87.0114 82.646 86.4985 83.1193C85.9822 83.5956 85.3728 83.8338 84.6701 83.8338L37.7121 83.8338L37.5231 83.8257L37.5018 83.8239C36.8081 83.7646 36.2246 83.4785 35.7513 82.9656C35.275 82.4494 35.0368 81.8399 35.0368 81.1372L35.0364 74.292L25.8272 74.292L25.6378 74.281L25.6089 74.2776C25.2771 74.2388 24.9712 74.1281 24.6915 73.9455L24.674 73.9341L24.5413 73.8394L24.3894 73.7072L24.3697 73.688C24.0048 73.3333 23.7943 72.9025 23.7382 72.3955C23.7287 72.3105 23.724 72.2265 23.724 72.1437C23.724 71.7321 23.8405 71.3486 24.0735 70.9934L24.0846 70.9764L24.1622 70.8679L39.474 51.1974L39.5851 51.0657Z" opacity="0.400000006" fill="rgb(151,151,151)" fill-opacity="0" fill-rule="evenodd" />
		<path id="路径" d="M77.9938 50.9547C78.6419 50.9547 79.2566 51.2325 79.6845 51.7139L79.7675 51.8129L95.3171 71.4592C95.4753 71.659 95.5613 71.9063 95.5613 72.1611C95.5613 72.7573 95.0999 73.2458 94.5147 73.289L94.4303 73.2921L86.3669 73.2921L86.3673 81.1373C86.3673 82.0743 85.6078 82.8339 84.6708 82.8339L37.7341 82.8339C36.7971 82.8339 36.0375 82.0743 36.0375 81.1373L36.0371 73.2921L25.8569 73.2921C25.6367 73.2921 25.422 73.2278 25.2387 73.1082L25.1622 73.0536C24.6939 72.6891 24.5906 72.0295 24.9104 71.5419L24.9644 71.4664L40.2518 51.8273C40.6536 51.3111 41.2576 50.9959 41.9064 50.9585L42.0367 50.9547L77.9938 50.9547Z" opacity="0.600000024" fill="rgb(161,167,179)" fill-rule="evenodd" />
		<path id="路径" d="M87.3669 73.2921L94.4303 73.2921L94.5147 73.289C95.0999 73.2458 95.5613 72.7573 95.5613 72.1611C95.5613 71.9063 95.4753 71.659 95.3171 71.4592L79.7675 51.8129L79.6845 51.7139C79.2566 51.2325 78.6419 50.9547 77.9938 50.9547L42.0367 50.9547L41.9064 50.9585C41.2576 50.9959 40.6536 51.3111 40.2518 51.8273L24.9644 71.4664L24.9104 71.5419C24.5906 72.0295 24.6939 72.6891 25.1622 73.0536L25.2387 73.1082C25.422 73.2278 25.6367 73.2921 25.8569 73.2921L36.0371 73.2921L36.0375 81.1373C36.0375 82.0743 36.7971 82.8339 37.7341 82.8339L84.6708 82.8339C85.6078 82.8339 86.3673 82.0743 86.3673 81.1373L86.3669 74.2921L86.3669 73.2921L87.3669 73.2921ZM25.7946 72.2763C25.8026 72.2807 25.8109 72.2842 25.8194 72.2867C25.8314 72.2903 25.8439 72.2921 25.8569 72.2921L37.037 72.2921L37.0375 81.1373C37.0375 81.2335 37.0545 81.3226 37.0885 81.4047C37.1225 81.4868 37.1735 81.5619 37.2415 81.6299C37.3095 81.6979 37.3846 81.7489 37.4667 81.7829C37.5488 81.8169 37.6379 81.8339 37.7341 81.8339L84.6708 81.8339C84.767 81.8339 84.8561 81.8168 84.9382 81.7828C85.0203 81.7488 85.0953 81.6978 85.1633 81.6299C85.2314 81.5618 85.2824 81.4867 85.3164 81.4046C85.3504 81.3225 85.3673 81.2335 85.3673 81.1374L85.3668 72.2921L94.412 72.2921L94.4522 72.2906C94.4863 72.2864 94.5125 72.2746 94.5306 72.2553C94.5511 72.2335 94.5613 72.2021 94.5613 72.1611C94.5613 72.1459 94.5589 72.1315 94.5542 72.118C94.5495 72.1044 94.5424 72.0917 94.533 72.0798L78.9922 52.4446L78.9287 52.3689C78.8054 52.2325 78.667 52.1298 78.5135 52.0608C78.3561 51.9901 78.1829 51.9547 77.9938 51.9547L42.0511 51.9547L41.9514 51.9576C41.7661 51.9698 41.5983 52.0153 41.448 52.0942C41.2939 52.175 41.1582 52.2908 41.0409 52.4415L25.7659 72.0647L25.7402 72.1006C25.7234 72.1297 25.717 72.1571 25.7211 72.1828C25.7253 72.2091 25.7405 72.2336 25.7667 72.2564L25.7946 72.2763Z" opacity="0.600000024" fill="rgb(151,151,151)" fill-opacity="0" fill-rule="evenodd" />
		<path id="路径 24" d="M4.1851 2.38122C3.49406 1.77684 2.5856 1.19398 1.45871 0.633963C1.32435 0.567195 1.25173 0.457588 1.25173 0.345927C1.25173 0.279737 1.27725 0.212825 1.33055 0.153687C1.47377 -0.00521529 1.76335 -0.0478203 1.97735 0.0585262C3.17235 0.652386 4.14555 1.27679 4.89594 1.93308C4.97038 1.99818 5.00678 2.07778 5.00678 2.15698C5.00678 2.2551 4.9509 2.35259 4.84228 2.42107C4.64599 2.54482 4.35176 2.52698 4.1851 2.38122ZM5.43144 6.30483C5.43144 6.01696 5.40331 5.73388 5.34721 5.45541C5.3425 5.43203 5.34023 5.40876 5.34023 5.38582C5.34023 5.20628 5.47933 5.04664 5.67834 5.01278C5.90277 4.97459 6.1184 5.11083 6.15996 5.3171C6.22539 5.64187 6.25803 5.97115 6.25803 6.30474C6.25803 7.02111 6.10751 7.75738 5.80798 8.51169C5.72973 8.70875 5.49247 8.8102 5.27806 8.73829C5.1104 8.68205 5.00635 8.53648 5.00635 8.38145C5.00635 8.33821 5.01444 8.29424 5.03151 8.25126C5.29863 7.57856 5.43144 6.93038 5.43144 6.30483ZM2.15578 12.7707L2.82754 11.5041C2.93559 11.3012 3.22153 11.2093 3.4662 11.2989C3.64725 11.3653 3.75497 11.5124 3.75497 11.6666C3.75497 11.7208 3.74166 11.7759 3.71357 11.8287L3.15437 12.8817L2.66135 13.8256L2.36642 14.4045L2.18418 14.7701C2.08281 14.9754 1.79999 15.0737 1.55248 14.9896C1.36504 14.9259 1.2516 14.7759 1.2516 14.6177C1.2516 14.567 1.26326 14.5154 1.28786 14.4656L1.47227 14.0956L1.77029 13.5107L2.15578 12.7707ZM0 20.5853C0 19.7805 0.166561 18.858 0.484808 17.796C0.545013 17.5951 0.761997 17.4795 0.969456 17.5378C1.14051 17.5859 1.25168 17.7372 1.25168 17.9014C1.25168 17.9364 1.24665 17.9719 1.23608 18.0072C0.936487 19.0069 0.782294 19.8625 0.782294 20.586C0.782294 20.6853 0.785196 20.782 0.791021 20.8764C0.791497 20.8841 0.791731 20.8917 0.791731 20.8993C0.791731 21.0982 0.631621 21.265 0.423939 21.2771C0.208306 21.2896 0.0230451 21.1304 0.0101466 20.9216C0.00336793 20.8118 0 20.6998 0 20.5853ZM4.51942 25.0243C3.26134 24.7348 2.21704 24.1813 1.39333 23.3613C1.29944 23.2678 1.25124 23.1355 1.25124 23.0024C1.25124 22.8935 1.28355 22.784 1.34954 22.6948C1.49612 22.4968 1.75339 22.474 1.92415 22.644C2.63589 23.3526 3.55158 23.8379 4.67802 24.0971C4.872 24.1417 5.00629 24.3392 5.00629 24.5602C5.00629 24.5907 5.00373 24.6216 4.99842 24.6527C4.95462 24.9087 4.74016 25.0751 4.51942 25.0243ZM12.2145 24.5747C11.1168 24.8147 10.1003 24.9674 9.16473 25.0322C8.95614 25.0467 8.77597 24.8794 8.76231 24.6586C8.76176 24.6496 8.76149 24.6408 8.76149 24.632C8.76149 24.4226 8.91509 24.2464 9.11526 24.2325C10.0142 24.1702 10.9964 24.0227 12.0614 23.7898C12.2661 23.745 12.4663 23.8844 12.5086 24.1012C12.514 24.1285 12.5165 24.1558 12.5165 24.1826C12.5165 24.3687 12.3934 24.5355 12.2145 24.5747ZM18.5168 23.6069C17.4719 24.1416 16.4741 24.6094 15.5232 25.0104C15.3161 25.0977 15.0982 24.9304 15.0366 24.6368C15.0255 24.584 15.0203 24.5307 15.0203 24.4784C15.0203 24.2393 15.1302 24.0185 15.3001 23.9469C16.2362 23.5522 17.2199 23.091 18.251 22.5633C18.4543 22.4592 18.6786 22.6085 18.752 22.8967C18.7678 22.9589 18.7753 23.0225 18.7753 23.085C18.7753 23.3122 18.6762 23.5253 18.5168 23.6069ZM24.7145 20.6445C23.7519 20.7803 22.7772 20.9858 21.7901 21.2612C21.5889 21.3174 21.3694 21.2312 21.2999 21.0688C21.2854 21.0351 21.2786 21.0009 21.2786 20.9671C21.2786 20.8381 21.3787 20.7176 21.5382 20.6731C22.5635 20.387 23.578 20.173 24.5817 20.0314C24.7914 20.0018 24.9912 20.1151 25.0278 20.2844C25.0317 20.3025 25.0336 20.3205 25.0336 20.3383C25.0336 20.4867 24.9017 20.618 24.7145 20.6445ZM30.8342 21.2683C29.872 21.0291 28.8971 20.9011 27.9091 20.8841C27.7026 20.8806 27.5374 20.6893 27.5374 20.4556L27.5374 20.449C27.5406 20.2122 27.7121 20.0231 27.9205 20.0267C28.9589 20.0445 29.984 20.1791 30.9956 20.4306C31.172 20.4745 31.2924 20.652 31.2924 20.8491C31.2924 20.8794 31.2896 20.9103 31.2836 20.9411C31.239 21.1725 31.0378 21.319 30.8342 21.2683ZM36.9116 23.7133C35.9679 23.0798 35.0128 22.5457 34.0462 22.111C33.8892 22.0404 33.7952 21.8804 33.7952 21.7123C33.7952 21.6552 33.8061 21.5971 33.829 21.5412C33.9195 21.3212 34.1633 21.2195 34.3737 21.3141C35.3828 21.768 36.3781 22.3245 37.3595 22.9834C37.4829 23.0662 37.5502 23.206 37.5502 23.3488C37.5502 23.429 37.529 23.5101 37.4845 23.5826C37.3608 23.7842 37.1043 23.8427 36.9116 23.7133ZM42.9788 28.6328C42.0704 27.6403 41.1519 26.7344 40.2233 25.9149C40.1112 25.816 40.0535 25.6751 40.0535 25.5333C40.0535 25.4188 40.091 25.3038 40.1678 25.2098C40.3398 24.9991 40.6434 24.9733 40.846 25.1521C41.8012 25.995 42.7445 26.9253 43.6759 27.9431C43.7646 28.04 43.8085 28.164 43.8085 28.2879C43.8085 28.4201 43.7584 28.5521 43.659 28.6504C43.4665 28.8409 43.162 28.833 42.9788 28.6328ZM46.7478 33.6666C45.7849 32.778 44.8496 31.8466 43.9417 30.8723C43.8529 30.777 43.8089 30.6553 43.8089 30.5339C43.8089 30.4027 43.8602 30.2719 43.9619 30.1748C44.1578 29.9878 44.4664 29.997 44.6511 30.1953C45.5422 31.1516 46.4601 32.0656 47.4048 32.9374C47.5103 33.0347 47.5639 33.1682 47.5639 33.3021C47.5639 33.4208 47.5218 33.5398 47.4366 33.6344C47.2552 33.8358 46.9468 33.8502 46.7478 33.6666ZM51.8873 37.488C50.8944 36.9326 49.9274 36.3432 48.9862 35.7196C48.8743 35.6455 48.8157 35.5345 48.8157 35.4223C48.8157 35.3416 48.846 35.2603 48.9086 35.1917C49.0582 35.0276 49.3354 34.998 49.5279 35.1255C50.4504 35.7368 51.3983 36.3145 52.3715 36.8589C52.5006 36.9311 52.5707 37.0513 52.5707 37.1738C52.5707 37.2446 52.5473 37.3162 52.4984 37.3798C52.3647 37.5535 52.0911 37.602 51.8873 37.488ZM58.2516 40.0144C57.2398 39.5155 56.2516 38.9761 55.2872 38.3963C55.1511 38.3144 55.074 38.16 55.074 38.0007C55.074 37.9277 55.0902 37.8536 55.1243 37.785C55.2329 37.5667 55.4818 37.4866 55.6803 37.6059C56.6259 38.1743 57.5947 38.7032 58.5869 39.1925C58.7389 39.2674 58.829 39.4317 58.829 39.6037C58.829 39.6653 58.8175 39.7279 58.7931 39.7878C58.7004 40.0147 58.458 40.1162 58.2516 40.0144ZM64.592 42.5468C63.5705 42.3395 62.5701 42.1084 61.5909 41.8534C61.4318 41.8119 61.3328 41.7035 61.3328 41.5879C61.3328 41.5561 61.3403 41.5239 61.356 41.4923C61.429 41.3456 61.6527 41.2696 61.8554 41.3224C62.8169 41.5728 63.7993 41.7998 64.8029 42.0034C64.9752 42.0383 65.0878 42.1516 65.0878 42.2749C65.0878 42.3002 65.0831 42.3258 65.0732 42.3513C65.015 42.5014 64.7996 42.5889 64.592 42.5468ZM70.9124 43.8047C69.8876 43.6613 68.8815 43.4894 67.8941 43.289C67.7148 43.2526 67.5916 43.0988 67.5916 42.9272C67.5916 42.9022 67.5942 42.8768 67.5996 42.8513C67.6425 42.6513 67.8438 42.523 68.0493 42.5647C69.021 42.7619 70.0114 42.9311 71.0206 43.0723C71.21 43.0988 71.3466 43.257 71.3466 43.438C71.3466 43.4555 71.3453 43.4733 71.3427 43.4911C71.3128 43.6934 71.1202 43.8338 70.9124 43.8047Z" opacity="0.300000012" fill="rgb(161,167,179)" fill-rule="evenodd" transform="matrix(-0.996195,-0.0871557,-0.0871557,0.996195,100.119,8.21881)" />
		<path id="路径 24" d="M4.1851 2.38122C3.49406 1.77684 2.5856 1.19398 1.45871 0.633963C1.32435 0.567195 1.25173 0.457588 1.25173 0.345927C1.25173 0.279737 1.27725 0.212825 1.33055 0.153687C1.47377 -0.00521529 1.76335 -0.0478203 1.97735 0.0585262C3.17235 0.652386 4.14555 1.27679 4.89594 1.93308C4.97038 1.99818 5.00678 2.07778 5.00678 2.15698C5.00678 2.2551 4.9509 2.35259 4.84228 2.42107C4.64599 2.54482 4.35176 2.52698 4.1851 2.38122ZM5.43144 6.30483C5.43144 6.01696 5.40331 5.73388 5.34721 5.45541C5.3425 5.43203 5.34023 5.40876 5.34023 5.38582C5.34023 5.20628 5.47933 5.04664 5.67834 5.01278C5.90277 4.97459 6.1184 5.11083 6.15996 5.3171C6.22539 5.64187 6.25803 5.97115 6.25803 6.30474C6.25803 7.02111 6.10751 7.75738 5.80798 8.51169C5.72973 8.70875 5.49247 8.8102 5.27806 8.73829C5.1104 8.68205 5.00635 8.53648 5.00635 8.38145C5.00635 8.33821 5.01444 8.29424 5.03151 8.25126C5.29863 7.57856 5.43144 6.93038 5.43144 6.30483ZM2.15578 12.7707L2.82754 11.5041C2.93559 11.3012 3.22153 11.2093 3.4662 11.2989C3.64725 11.3653 3.75497 11.5124 3.75497 11.6666C3.75497 11.7208 3.74166 11.7759 3.71357 11.8287L3.15437 12.8817L2.66135 13.8256L2.36642 14.4045L2.18418 14.7701C2.08281 14.9754 1.79999 15.0737 1.55248 14.9896C1.36504 14.9259 1.2516 14.7759 1.2516 14.6177C1.2516 14.567 1.26326 14.5154 1.28786 14.4656L1.47227 14.0956L1.77029 13.5107L2.15578 12.7707ZM0 20.5853C0 19.7805 0.166561 18.858 0.484808 17.796C0.545013 17.5951 0.761997 17.4795 0.969456 17.5378C1.14051 17.5859 1.25168 17.7372 1.25168 17.9014C1.25168 17.9364 1.24665 17.9719 1.23608 18.0072C0.936487 19.0069 0.782294 19.8625 0.782294 20.586C0.782294 20.6853 0.785196 20.782 0.791021 20.8764C0.791497 20.8841 0.791731 20.8917 0.791731 20.8993C0.791731 21.0982 0.631621 21.265 0.423939 21.2771C0.208306 21.2896 0.0230451 21.1304 0.0101466 20.9216C0.00336793 20.8118 0 20.6998 0 20.5853ZM30.8342 21.2683C29.872 21.0291 28.8971 20.9011 27.9091 20.8841C27.7026 20.8806 27.5374 20.6893 27.5374 20.4556L27.5374 20.449C27.5406 20.2122 27.7121 20.0231 27.9205 20.0267C28.9589 20.0445 29.984 20.1791 30.9956 20.4306C31.172 20.4745 31.2924 20.652 31.2924 20.8491C31.2924 20.8794 31.2896 20.9103 31.2836 20.9411C31.239 21.1725 31.0378 21.319 30.8342 21.2683ZM24.7145 20.6445C23.7519 20.7803 22.7772 20.9858 21.7901 21.2612C21.5889 21.3174 21.3694 21.2312 21.2999 21.0688C21.2854 21.0351 21.2786 21.0009 21.2786 20.9671C21.2786 20.8381 21.3787 20.7176 21.5382 20.6731C22.5635 20.387 23.578 20.173 24.5817 20.0314C24.7914 20.0018 24.9912 20.1151 25.0278 20.2844C25.0317 20.3025 25.0336 20.3205 25.0336 20.3383C25.0336 20.4867 24.9017 20.618 24.7145 20.6445ZM36.9116 23.7133C35.9679 23.0798 35.0128 22.5457 34.0462 22.111C33.8892 22.0404 33.7952 21.8804 33.7952 21.7123C33.7952 21.6552 33.8061 21.5971 33.829 21.5412C33.9195 21.3212 34.1633 21.2195 34.3737 21.3141C35.3828 21.768 36.3781 22.3245 37.3595 22.9834C37.4829 23.0662 37.5502 23.206 37.5502 23.3488C37.5502 23.429 37.529 23.5101 37.4845 23.5826C37.3608 23.7842 37.1043 23.8427 36.9116 23.7133ZM4.51942 25.0243C3.26134 24.7348 2.21704 24.1813 1.39333 23.3613C1.29944 23.2678 1.25124 23.1355 1.25124 23.0024C1.25124 22.8935 1.28355 22.784 1.34954 22.6948C1.49612 22.4968 1.75339 22.474 1.92415 22.644C2.63589 23.3526 3.55158 23.8379 4.67802 24.0971C4.872 24.1417 5.00629 24.3392 5.00629 24.5602C5.00629 24.5907 5.00373 24.6216 4.99842 24.6527C4.95462 24.9087 4.74016 25.0751 4.51942 25.0243ZM18.5168 23.6069C17.4719 24.1416 16.4741 24.6094 15.5232 25.0104C15.3161 25.0977 15.0982 24.9304 15.0366 24.6368C15.0255 24.584 15.0203 24.5307 15.0203 24.4784C15.0203 24.2393 15.1302 24.0185 15.3001 23.9469C16.2362 23.5522 17.2199 23.091 18.251 22.5633C18.4543 22.4592 18.6786 22.6085 18.752 22.8967C18.7678 22.9589 18.7753 23.0225 18.7753 23.085C18.7753 23.3122 18.6762 23.5253 18.5168 23.6069ZM12.2145 24.5747C11.1168 24.8147 10.1003 24.9674 9.16473 25.0322C8.95614 25.0467 8.77597 24.8794 8.76231 24.6586C8.76176 24.6496 8.76149 24.6408 8.76149 24.632C8.76149 24.4226 8.91509 24.2464 9.11526 24.2325C10.0142 24.1702 10.9964 24.0227 12.0614 23.7898C12.2661 23.745 12.4663 23.8844 12.5086 24.1012C12.514 24.1285 12.5165 24.1558 12.5165 24.1826C12.5165 24.3687 12.3934 24.5355 12.2145 24.5747ZM42.9788 28.6328C42.0704 27.6403 41.1519 26.7344 40.2233 25.9149C40.1112 25.816 40.0535 25.6751 40.0535 25.5333C40.0535 25.4188 40.091 25.3038 40.1678 25.2098C40.3398 24.9991 40.6434 24.9733 40.846 25.1521C41.8012 25.995 42.7445 26.9253 43.6759 27.9431C43.7646 28.04 43.8085 28.164 43.8085 28.2879C43.8085 28.4201 43.7584 28.5521 43.659 28.6504C43.4665 28.8409 43.162 28.833 42.9788 28.6328ZM46.7478 33.6666C45.7849 32.778 44.8496 31.8466 43.9417 30.8723C43.8529 30.777 43.8089 30.6553 43.8089 30.5339C43.8089 30.4027 43.8602 30.2719 43.9619 30.1748C44.1578 29.9878 44.4664 29.997 44.6511 30.1953C45.5422 31.1516 46.4601 32.0656 47.4048 32.9374C47.5103 33.0347 47.5639 33.1682 47.5639 33.3021C47.5639 33.4208 47.5218 33.5398 47.4366 33.6344C47.2552 33.8358 46.9468 33.8502 46.7478 33.6666ZM51.8873 37.488C50.8944 36.9326 49.9274 36.3432 48.9862 35.7196C48.8743 35.6455 48.8157 35.5345 48.8157 35.4223C48.8157 35.3416 48.846 35.2603 48.9086 35.1917C49.0582 35.0276 49.3354 34.998 49.5279 35.1255C50.4504 35.7368 51.3983 36.3145 52.3715 36.8589C52.5006 36.9311 52.5707 37.0513 52.5707 37.1738C52.5707 37.2446 52.5473 37.3162 52.4984 37.3798C52.3647 37.5535 52.0911 37.602 51.8873 37.488ZM58.2516 40.0144C57.2398 39.5155 56.2516 38.9761 55.2872 38.3963C55.1511 38.3144 55.074 38.16 55.074 38.0007C55.074 37.9277 55.0902 37.8536 55.1243 37.785C55.2329 37.5667 55.4818 37.4866 55.6803 37.6059C56.6259 38.1743 57.5947 38.7032 58.5869 39.1925C58.7389 39.2674 58.829 39.4317 58.829 39.6037C58.829 39.6653 58.8175 39.7279 58.7931 39.7878C58.7004 40.0147 58.458 40.1162 58.2516 40.0144ZM64.592 42.5468C63.5705 42.3395 62.5701 42.1084 61.5909 41.8534C61.4318 41.8119 61.3328 41.7035 61.3328 41.5879C61.3328 41.5561 61.3403 41.5239 61.356 41.4923C61.429 41.3456 61.6527 41.2696 61.8554 41.3224C62.8169 41.5728 63.7993 41.7998 64.8029 42.0034C64.9752 42.0383 65.0878 42.1516 65.0878 42.2749C65.0878 42.3002 65.0831 42.3258 65.0732 42.3513C65.015 42.5014 64.7996 42.5889 64.592 42.5468ZM70.9124 43.8047C69.8876 43.6613 68.8815 43.4894 67.8941 43.289C67.7148 43.2526 67.5916 43.0988 67.5916 42.9272C67.5916 42.9022 67.5942 42.8768 67.5996 42.8513C67.6425 42.6513 67.8438 42.523 68.0493 42.5647C69.021 42.7619 70.0114 42.9311 71.0206 43.0723C71.21 43.0988 71.3466 43.257 71.3466 43.438C71.3466 43.4555 71.3453 43.4733 71.3427 43.4911C71.3128 43.6934 71.1202 43.8338 70.9124 43.8047Z" opacity="0.300000012" fill="rgb(151,151,151)" fill-opacity="0" fill-rule="evenodd" transform="matrix(-0.996195,-0.0871557,-0.0871557,0.996195,100.119,8.21881)" />
		<path id="路径 14" d="M88.9189 15.2888C88.9189 15.2888 87.1181 17.9563 86.2709 18.4948C84.6667 19.5147 83.2199 19.7437 82.2391 19.7437C79.9909 19.7437 84.6244 19.2164 86.2709 17.4303C87.9174 15.6443 90.1682 12.0258 90.1682 12.0258L88.9189 12.0258L87.5387 13.7106C87.5387 13.7106 86.8918 12.9141 85.8656 12.9141C84.8393 12.9141 82.1886 13.3519 81.1734 16.1716C80.1581 18.9913 77 21.1358 77 21.1358C77 21.1358 81.563 23.3995 85.8656 21.1358C90.1682 18.8721 88.9189 15.2888 88.9189 15.2888Z" opacity="0.400000006" fill="rgb(161,167,179)" fill-rule="evenodd" />
		<path id="路径 14" d="M82.5752 19.3279C82.5043 19.3507 82.4362 19.3724 82.3713 19.3931C81.578 19.6462 81.2725 19.7437 82.2391 19.7437C82.3636 19.7437 82.4956 19.74 82.6345 19.7315C83.5897 19.6728 84.8703 19.3852 86.2709 18.4948C86.74 18.1966 87.5016 17.2455 88.0879 16.456C88.5603 15.8199 88.9189 15.2888 88.9189 15.2888C88.9189 15.2888 88.9587 15.4028 88.9996 15.6031C89.0547 15.8728 89.1119 16.2989 89.0768 16.8133C88.9918 18.058 88.3668 19.8199 85.8656 21.1358C82.8571 22.7187 79.7213 22.088 78.1071 21.5654C77.4128 21.3406 77 21.1358 77 21.1358C77 21.1358 77.3696 20.8848 77.8966 20.4417C78.91 19.5895 80.5054 18.0266 81.1734 16.1716C82.1886 13.3519 84.8393 12.9141 85.8656 12.9141C86.2945 12.9141 86.6572 13.0533 86.9341 13.2153C87.3196 13.4408 87.5387 13.7106 87.5387 13.7106L88.18 12.9277L88.9189 12.0258L90.1682 12.0258C90.1682 12.0258 89.9193 12.4259 89.5265 13.0258C89.4572 13.1316 89.3834 13.2436 89.3058 13.3607C88.4997 14.5764 87.2733 16.343 86.2709 17.4303C85.3902 18.3857 83.6549 18.9809 82.5752 19.3279ZM87.1238 14.7858C86.5506 15.5702 86.0212 16.2258 85.5356 16.7525C85.0294 17.3016 83.8733 17.8643 82.0674 18.4404C81.4616 18.6337 81.0825 18.8084 80.93 18.9644C80.822 19.0749 80.7437 19.1962 80.6951 19.3285C80.6504 19.4499 80.6307 19.5805 80.6359 19.7203C80.6423 19.8907 80.6822 20.0426 80.7557 20.1761C80.8323 20.3153 80.9454 20.4344 81.095 20.5334C81.2369 20.6273 81.4065 20.6879 81.6037 20.7151C81.7417 20.7342 81.9535 20.7437 82.2391 20.7437C82.5147 20.7437 82.7888 20.7293 83.0614 20.7005C84.264 20.5735 85.437 20.1664 86.5804 19.4791C86.2433 19.7569 85.8498 20.0142 85.4 20.2509C85.0801 20.4191 84.7518 20.5637 84.415 20.6845C83.0735 21.1656 81.597 21.2703 79.9855 20.9986C79.6412 20.9406 79.3167 20.8734 79.012 20.797C79.1409 20.6789 79.2714 20.5558 79.4034 20.4277C80.7355 19.1358 81.6391 17.83 82.1142 16.5103C82.3226 15.9316 82.6239 15.4464 83.0181 15.0548C83.2896 14.7851 83.6052 14.5597 83.9649 14.3787C84.4312 14.1441 84.908 13.9983 85.3951 13.9414C85.5508 13.9232 85.7077 13.9141 85.8656 13.9141C85.8758 13.9141 85.8859 13.9143 85.8961 13.9146C86.1065 13.9211 86.3148 13.9952 86.521 14.1368C86.6349 14.215 86.7154 14.2831 86.7625 14.3411L87.1238 14.7858Z" opacity="0.400000006" fill="rgb(151,151,151)" fill-opacity="0" fill-rule="evenodd" />
		<path id="路径 14备份" d="M6.62163 1.86459C6.62163 1.86459 5.62114 3.38887 5.15048 3.69662C4.25926 4.27939 3.45548 4.41024 2.91059 4.41024C1.66161 4.41024 4.23575 4.10894 5.15048 3.08833C6.06522 2.06773 7.31567 -6.49762e-16 7.31567 -6.49762e-16L6.62163 -6.49762e-16L5.85484 0.96276C5.85484 0.96276 5.49545 0.507651 4.92532 0.507651C4.35519 0.507651 2.88257 0.757776 2.31854 2.36904C1.75451 3.9803 2.03051e-16 5.20576 2.03051e-16 5.20576C2.03051e-16 5.20576 2.53498 6.49931 4.92532 5.20576C7.31567 3.91221 6.62163 1.86459 6.62163 1.86459Z" opacity="0.400000006" fill="rgb(161,167,179)" fill-rule="evenodd" transform="matrix(0.469472,-0.882947,0.882947,0.469472,90.3568,45.8078)" />
		<path id="路径 14备份" d="M3.09508 3.11395C3.77735 2.86564 4.21426 2.63463 4.40581 2.4209C4.61323 2.18947 4.8362 1.91197 5.07471 1.58841L5.07004 1.5825C5.04481 1.55055 5.01596 1.52883 4.98349 1.51734C4.96524 1.51088 4.94585 1.50765 4.92532 1.50765C4.87987 1.50765 4.83456 1.50944 4.78939 1.51301C4.54869 1.53204 4.312 1.60177 4.07932 1.72221C3.95164 1.7883 3.83642 1.86809 3.73367 1.96158C3.5253 2.15118 3.36821 2.39713 3.26238 2.69943C3.21386 2.83805 3.15809 2.97622 3.09508 3.11395ZM0.853653 4.48402C1.38363 3.9717 2.01898 3.22478 2.31854 2.36904C2.88257 0.757776 4.35519 0.507651 4.92532 0.507651C5.13067 0.507651 5.30869 0.566693 5.45241 0.642246C5.5271 0.681507 5.59253 0.725226 5.64772 0.767434C5.78121 0.869513 5.85484 0.96276 5.85484 0.96276L6.48533 0.171139L6.62163 -6.49762e-16L7.31567 -6.49762e-16C7.31567 -6.49762e-16 7.25138 0.106304 7.1413 0.282601C7.1241 0.310137 7.10579 0.33938 7.08644 0.370192C6.97967 0.540133 6.84106 0.757806 6.68244 1C6.46009 1.33948 6.19841 1.72713 5.92994 2.09904C5.85753 2.19935 5.78463 2.29851 5.71187 2.39528C5.71073 2.3968 5.70959 2.39831 5.70845 2.39983C5.51755 2.65353 5.32772 2.89059 5.15048 3.08833C4.76443 3.51907 4.08279 3.82169 3.51773 4.02761C3.31958 4.09982 3.13576 4.16014 2.98405 4.20992C2.54333 4.35454 2.37358 4.41024 2.91059 4.41024C3.10238 4.41024 3.32625 4.39403 3.57472 4.34761C4.03216 4.26213 4.57296 4.07426 5.15048 3.69662C5.25185 3.63034 5.37778 3.50764 5.513 3.3559C6.00567 2.80302 6.62163 1.86459 6.62163 1.86459C6.62163 1.86459 6.7441 2.2259 6.70896 2.74086C6.68473 3.09601 6.58554 3.52423 6.31952 3.95742C6.05302 4.39139 5.61907 4.83033 4.92532 5.20576C3.52778 5.96205 2.08079 5.83399 1.1199 5.59715C0.437296 5.42891 2.03051e-16 5.20576 2.03051e-16 5.20576C2.03051e-16 5.20576 0.385754 4.93633 0.853653 4.48402Z" opacity="0.400000006" fill="rgb(151,151,151)" fill-opacity="0" fill-rule="evenodd" transform="matrix(0.469472,-0.882947,0.882947,0.469472,90.3568,45.8078)" />
		<path id="路径 14备份 2" d="M7.94596 2.33074C7.94596 2.33074 6.74537 4.23608 6.18058 4.62078C5.11111 5.34923 4.14657 5.51281 3.49271 5.51281C1.99394 5.51281 5.0829 5.13617 6.18058 3.86041C7.27826 2.58466 8.7788 0 8.7788 0L7.94596 0L7.02581 1.20345C7.02581 1.20345 6.59454 0.634563 5.91039 0.634563C5.22623 0.634563 3.45908 0.94722 2.78225 2.96129C2.10541 4.97537 -2.43661e-16 6.5072 -2.43661e-16 6.5072C-2.43661e-16 6.5072 3.04197 8.12414 5.91039 6.5072C8.7788 4.89027 7.94596 2.33074 7.94596 2.33074Z" opacity="0.600000024" fill="rgb(161,167,179)" fill-rule="evenodd" transform="matrix(0.173648,0.984808,-0.984808,0.173648,23.2295,43.7257)" />
		<path id="路径 14备份 2" d="M4.02688 5.10657C3.8635 5.16579 3.71216 5.21752 3.58086 5.2624C3.05199 5.44318 2.8483 5.51281 3.49271 5.51281C3.67032 5.51281 3.87086 5.50074 4.0902 5.46855C4.67833 5.38226 5.40162 5.15136 6.18058 4.62078C6.39713 4.47328 6.70715 4.10223 7.00713 3.70074C7.48953 3.0551 7.94596 2.33074 7.94596 2.33074C7.94596 2.33074 8.03662 2.60936 8.05509 3.04083C8.0683 3.34927 8.04462 3.7358 7.92457 4.1545C7.70354 4.92531 7.15588 5.80511 5.91039 6.5072C4.1002 7.52761 2.2209 7.26011 1.08063 6.92385C0.414029 6.72728 -2.43661e-16 6.5072 -2.43661e-16 6.5072C-2.43661e-16 6.5072 0.361624 6.2441 0.83331 5.7926C1.49976 5.15467 2.38592 4.14066 2.78225 2.96129C3.45908 0.94722 5.22623 0.634563 5.91039 0.634563C6.10439 0.634563 6.27805 0.680306 6.42732 0.745849C6.66533 0.850362 6.8413 1.00522 6.93874 1.10525C6.99569 1.16372 7.02581 1.20345 7.02581 1.20345L7.6445 0.394276L7.94596 0L8.7788 0C8.7788 0 8.68165 0.167351 8.51869 0.437906C8.49086 0.484114 8.46111 0.533333 8.42959 0.585243C8.35414 0.709532 8.26858 0.849246 8.17506 1C7.88433 1.46863 7.51666 2.04393 7.13645 2.59414C7.09977 2.64723 7.06296 2.70009 7.0261 2.7526C7.01314 2.77105 7.00018 2.78947 6.98721 2.80783C6.7125 3.1968 6.43566 3.56395 6.18058 3.86041C5.67202 4.45148 4.73603 4.84954 4.02688 5.10657ZM6.35876 1.97884C6.0226 2.46371 5.71053 2.87349 5.42255 3.20819C5.12493 3.55409 4.40826 3.92169 3.27253 4.31098C3.46155 3.96894 3.61409 3.62523 3.73016 3.27984C3.88274 2.82581 4.1149 2.46342 4.42666 2.19268C4.54558 2.08941 4.67608 1.99947 4.81815 1.92286C5.12041 1.7599 5.42813 1.66602 5.74132 1.64123C5.7975 1.63679 5.85385 1.63456 5.91039 1.63456C5.95015 1.63456 5.98802 1.64041 6.02399 1.6521C6.10101 1.67713 6.16932 1.72895 6.22892 1.80757L6.35876 1.97884ZM2.16112 5.85537C2.0868 5.93895 2.01024 6.02242 1.93144 6.1058C1.97289 6.11391 2.01483 6.12181 2.05728 6.12947C2.16524 6.14897 2.27221 6.16558 2.37818 6.1793C2.30671 6.10903 2.24853 6.0317 2.20365 5.9473C2.18782 5.91753 2.17364 5.88689 2.16112 5.85537Z" opacity="0.600000024" fill="rgb(151,151,151)" fill-opacity="0" fill-rule="evenodd" transform="matrix(0.173648,0.984808,-0.984808,0.173648,23.2295,43.7257)" />
	</g>
</svg>
