<svg viewBox="0 0 16 16" xmlns="http://www.w3.org/2000/svg" xmlns:xlink="http://www.w3.org/1999/xlink" width="16.000000" height="16.000000" fill="none" customFrame="#000000">
	<path id="形状结合" d="M11.8515 0.272448C9.60879 -0.410707 6.30986 0.0487884 2.92734 3.2964C-0.455169 6.54401 -0.240268 9.28658 0.336861 10.969C0.913989 12.6514 3.72784 15.3555 8.29708 15.8959C12.8663 16.4363 15.523 14.9269 15.9484 10.0804C16.3738 5.23379 14.0942 0.955602 11.8515 0.272448ZM10.6129 3.35169L7.07226 4.09763C6.48668 4.221 6.06754 4.73765 6.06754 5.33609L6.06755 9.18685C6.04743 9.5119 5.96256 9.81925 5.6567 10.0438C5.65068 10.0482 5.64474 10.0525 5.63888 10.0567L5.60455 10.0804C5.59337 10.0878 5.58244 10.0949 5.57169 10.1015L5.53991 10.1205L5.50884 10.1377L5.4781 10.1534L5.44731 10.168L5.4161 10.1818L5.36768 10.2019L5.22007 10.2602L5.13054 10.2972L5.08053 10.3189L5.02651 10.3432L4.96812 10.3705L4.90497 10.4011L4.83668 10.4354L4.76288 10.4737L4.6887 10.5134C4.08675 10.84 3.86529 11.5714 4.2057 12.16C4.5461 12.7485 5.37967 12.8226 6.06754 12.4261C6.44552 12.2083 6.63523 11.8702 6.7321 11.511C6.81309 11.2108 6.82867 10.9975 6.83327 10.6694L6.83478 10.5134L6.83473 10.4552L6.83529 10.3223C6.83536 10.2583 6.8352 10.195 6.83476 10.1327L6.83473 6.76061C6.83473 6.51174 7.00871 6.29675 7.25211 6.24485L10.7349 5.50219C10.7638 5.49602 10.7933 5.49292 10.8229 5.49292C11.0559 5.49291 11.2448 5.68179 11.2448 5.91478L11.2448 8.29324L11.2447 8.33213C11.2402 8.80426 11.1535 9.00051 11.0076 9.09763C10.9051 9.16584 10.7662 9.24291 10.6178 9.32119L10.5052 9.38L10.2249 9.52433L10.1199 9.57909C10.0522 9.61476 9.98976 9.64858 9.93594 9.6796C9.24807 10.076 9.04259 10.6837 9.38299 11.2723C9.7234 11.8608 10.557 12.0166 11.2448 11.6201C11.6228 11.4023 11.8125 11.0642 11.9094 10.7051C11.977 10.4543 11.9991 10.2757 12.0071 10.0357L12.0096 9.93613L12.0111 9.82808L12.0125 9.57379L12.0122 4.48686C12.0122 4.40651 12.0039 4.32638 11.9873 4.24776C11.8552 3.62078 11.2398 3.21959 10.6129 3.35169Z" fill="rgb(255,255,255)" fill-rule="evenodd" />
	<path id="形状结合" d="M2.92734 3.2964C6.30986 0.0487884 9.60879 -0.410707 11.8515 0.272448C13.9102 0.899553 16 4.55598 16 8.9006C16 9.28891 15.9833 9.68272 15.9484 10.0804C15.523 14.9269 12.8663 16.4363 8.29708 15.8959C3.72784 15.3555 0.913989 12.6514 0.336861 10.969C0.149301 10.4222 0 9.76349 0 9.01184C0 7.45064 0.644105 5.48858 2.92734 3.2964ZM11.3311 1.16483L11.3301 1.16459Q9.82329 0.778389 8.09093 1.27209Q5.79945 1.92514 3.61992 4.01774Q1.00463 6.52873 1.00463 9.021Q1.00463 9.03799 1.00476 9.05499L1.00476 9.05501Q1.01045 9.8507 1.28275 10.6445Q1.6915 11.836 3.39792 13.0447Q3.65115 13.224 3.91455 13.3869L3.91481 13.3871Q5.88124 14.6033 8.41452 14.9029Q11.573 15.2764 13.0974 14.1931Q14.6824 13.0668 14.9522 9.99292Q15.0044 9.39877 15.0044 8.8205Q15.0044 7.0337 14.5065 5.39851L14.5065 5.39847Q14.2935 4.69913 13.9895 4.02752Q13.4569 2.85099 12.7587 2.08543Q12.1384 1.4052 11.5601 1.22905Q11.4462 1.19437 11.3311 1.16483ZM10.4067 2.37317Q10.8444 2.28094 11.2507 2.35698L11.2507 2.35699Q11.657 2.43304 12.0318 2.67738Q12.4066 2.92172 12.6401 3.2628Q12.8736 3.60384 12.9658 4.04159C12.9967 4.18838 13.0122 4.33679 13.0122 4.4868L13.0125 9.57958L13.011 9.84177L13.0093 9.96149L13.0065 10.069Q12.991 10.5351 12.8749 10.9655Q12.6986 11.6191 12.2904 12.0559L12.2903 12.0559Q12.0556 12.3071 11.7442 12.4865C11.1869 12.8077 10.6055 12.9117 9.99995 12.7986Q9.43695 12.6934 9.03708 12.38Q8.72871 12.1384 8.51735 11.7729Q8.22986 11.2759 8.21707 10.7718Q8.21648 10.7484 8.21648 10.7249C8.21648 10.5102 8.2538 10.2946 8.32845 10.078C8.508 9.5571 8.87738 9.13549 9.43659 8.8132Q9.52536 8.76204 9.65751 8.6924L9.76715 8.63524L10.0422 8.49364L10.1511 8.43677C10.1843 8.41929 10.2151 8.40278 10.2437 8.38726C10.2441 8.36893 10.2445 8.349 10.2447 8.32747L10.2448 8.29327L10.2448 6.62918L7.83473 7.14309L7.83476 10.1299L7.83529 10.3266L7.83473 10.4543L7.83474 10.5231L7.83317 10.6834C7.8274 11.0951 7.78221 11.4577 7.69759 11.7715Q7.5213 12.4251 7.11305 12.8619Q6.87831 13.113 6.56688 13.2925C6.02145 13.6069 5.45953 13.7276 4.88111 13.6546Q4.29013 13.58 3.87388 13.2704L3.87386 13.2704Q3.55601 13.034 3.34005 12.6606Q3.10014 12.2458 3.05177 11.8098Q3.03956 11.6997 3.03956 11.5882Q3.03956 11.2766 3.135 10.9544Q3.25472 10.5503 3.494 10.2376L3.49404 10.2376Q3.77379 9.87208 4.21695 9.63165L4.30225 9.58611L4.38812 9.54165L4.46892 9.5012L4.54483 9.46453L4.61599 9.4314L4.68232 9.40163L4.74851 9.37307L4.85274 9.33012L4.98423 9.27835L5.02169 9.26279L5.03054 9.25887L5.0365 9.25605L5.03958 9.25448L5.04541 9.25126L5.05457 9.24494C5.05996 9.2243 5.06429 9.19342 5.06755 9.15229L5.06754 5.33609L5.06754 5.33608Q5.06754 4.93438 5.19407 4.57755L5.19409 4.57752Q5.32063 4.22067 5.57372 3.9087Q5.82682 3.59672 6.14992 3.39932Q6.47301 3.20193 6.8661 3.11911L10.4067 2.37317ZM10.6129 3.35169L7.07226 4.09763C6.48668 4.221 6.06754 4.73765 6.06754 5.33609L6.06755 9.18685C6.04743 9.5119 5.96256 9.81925 5.6567 10.0438C5.65068 10.0482 5.64474 10.0525 5.63888 10.0567L5.60455 10.0804C5.59337 10.0878 5.58244 10.0949 5.57169 10.1015L5.53991 10.1205L5.50884 10.1377L5.4781 10.1534L5.44731 10.168L5.4161 10.1818L5.36768 10.2019L5.22007 10.2602L5.13054 10.2972L5.08053 10.3189L5.02651 10.3432L4.96812 10.3705L4.90497 10.4011L4.83668 10.4354L4.76288 10.4737L4.6887 10.5134C4.27901 10.7357 4.04557 11.1455 4.04557 11.5702C4.04557 11.7694 4.09697 11.972 4.2057 12.16C4.5461 12.7485 5.37967 12.8226 6.06754 12.4261C6.44552 12.2083 6.63523 11.8702 6.7321 11.511C6.81309 11.2108 6.82867 10.9975 6.83327 10.6694L6.83478 10.5134L6.83473 10.4552L6.83529 10.3223L6.83531 10.295C6.83531 10.2402 6.83514 10.1861 6.83476 10.1327L6.83473 6.76061C6.83473 6.51174 7.00871 6.29675 7.25211 6.24485L10.7349 5.50219C10.7638 5.49602 10.7933 5.49292 10.8229 5.49292C11.0559 5.49291 11.2448 5.68179 11.2448 5.91478L11.2448 8.29324L11.2447 8.33213C11.2402 8.80426 11.1535 9.00051 11.0076 9.09763C10.9051 9.16584 10.7662 9.24291 10.6178 9.32119L10.5052 9.38L10.2249 9.52433L10.1199 9.57909C10.0522 9.61476 9.98976 9.64858 9.93594 9.6796C9.46658 9.95011 9.22181 10.319 9.22181 10.713C9.22181 10.8964 9.27486 11.0853 9.38299 11.2723C9.7234 11.8608 10.557 12.0166 11.2448 11.6201C11.6228 11.4023 11.8125 11.0642 11.9094 10.7051C11.977 10.4543 11.9991 10.2757 12.0071 10.0357L12.0096 9.93613L12.0111 9.82808L12.0125 9.57379L12.0122 4.48686C12.0122 4.40651 12.0039 4.32638 11.9873 4.24776C11.8552 3.62078 11.2398 3.21959 10.6129 3.35169Z" fill="rgb(151,151,151)" fill-opacity="0" fill-rule="evenodd" />
</svg>
