<svg viewBox="0 0 24 24" xmlns="http://www.w3.org/2000/svg" xmlns:xlink="http://www.w3.org/1999/xlink" width="24.000000" height="24.000000" fill="none" customFrame="#000000">
	<path id="" d="M17.2793 1.31836C15.5527 0.791016 13.6211 0.832031 11.4844 1.44141C9.34766 2.04688 7.20703 3.38281 5.0625 5.44922C3 7.44922 1.76367 9.32617 1.35352 11.0801C0.947266 12.8301 1 14.4492 1.51172 15.9375C1.80078 16.7695 2.42383 17.666 3.38086 18.627C4.3418 19.584 5.59766 20.4414 7.14844 21.1992C8.70312 21.9609 10.457 22.4551 12.4102 22.6816C15.6406 23.0488 18.123 22.6152 19.8574 21.3809C21.5957 20.1504 22.5996 17.9277 22.8691 14.7129C23.0488 12.5996 22.8906 10.5723 22.3945 8.63086C21.8984 6.68555 21.1816 5.06055 20.2441 3.75586C19.3066 2.45117 18.3184 1.63867 17.2793 1.31836ZM15.8613 10.9453C16.166 11.1211 16.3789 11.4004 16.5 11.7832C16.6211 12.166 16.6289 12.5547 16.5234 12.9492C16.418 13.3398 16.2148 13.623 15.9141 13.7988L11.5664 16.2949C11.1836 16.5215 10.7793 16.5957 10.3535 16.5176C9.93164 16.4355 9.57617 16.2383 9.28711 15.9258C8.99805 15.6133 8.85352 15.2559 8.85352 14.8535L8.85352 9.83789C8.85352 9.43945 8.99805 9.0918 9.28711 8.79492C9.57617 8.49805 9.93164 8.31055 10.3535 8.23242C10.7793 8.15039 11.1758 8.21484 11.543 8.42578L15.8613 10.9453Z" fill="rgb(0,0,0)" fill-opacity="0.898039222" fill-rule="nonzero" />
</svg>
